<?xml version="1.0" encoding="utf-8" standalone="yes"?>
<!DOCTYPE svg PUBLIC "-//W3C//DTD SVG 1.1//EN" "http://www.w3.org/Graphics/SVG/1.1/DTD/svg11.dtd">
<svg width="900" height="430" viewBox="0 0 900 430" style="fill:none;stroke:none;fill-rule:evenodd;clip-rule:evenodd;stroke-linecap:round;stroke-linejoin:round;stroke-miterlimit:1.5;" version="1.1" xmlns="http://www.w3.org/2000/svg" xmlns:xlink="http://www.w3.org/1999/xlink"><style id="fontImports">@import url("https://fonts.googleapis.com/css2?family=Roboto:wght@400;700&amp;display=block");</style><g id="items" style="isolation: isolate"><g id="blend" style="mix-blend-mode:normal"><g id="g-root-5.cu_sy_4jtltg1dfqyoe-fill" data-item-order="999739125" data-item-id="5.cu_sy_4jtltg1dfqyoe" data-item-class="Part Indexed Fill Stroke" data-item-index="5" data-renderer-id="0" transform="translate(711.466064453125, 3)"><g id="5.cu_sy_4jtltg1dfqyoe-fill" stroke="none" fill="#4f4a20"><g><path d="M 109.203309 77.809288C 100.574646 84.927453 100.610901 96.987679 107.451539 105.279946C 114.292176 113.572213 126.125611 115.900521 134.754273 108.782372C 147.704041 98.099541 149.635865 73.0635 149.809388 70.337197C 147.099854 69.989327 122.153077 67.126473 109.203309 77.809288ZM 75.863587 58.622765C 84.492249 65.740929 84.455994 77.801156 77.615357 86.093422C 70.77472 94.385689 58.941285 96.713997 50.312623 89.595849C 37.362854 78.913018 35.431031 53.876976 35.257508 51.150673C 37.967041 50.802811 62.913819 47.939949 75.863587 58.622765ZM 49.048096 183.685158C 56.957642 175.775597 68.95929 176.963326 76.560486 184.564492C 84.161683 192.165688 85.349366 204.167336 77.43982 212.076912C 65.569275 223.947457 40.463135 223.479775 37.732728 223.39222C 37.645203 220.661812 37.177491 195.555703 49.048096 183.685158ZM 125.061829 193.711281C 120.954285 188.59092 113.877137 188.515328 108.956299 192.462777C 104.035462 196.410256 102.574219 203.335305 106.681702 208.455666C 112.846375 216.140419 127.521851 217.475106 129.12024 217.598824C 129.346192 216.011635 131.226441 201.396035 125.061829 193.711281ZM 102.48169 37.823517C 98.26001 42.85019 99.565125 49.806359 104.395874 53.863533C 109.226685 57.920708 116.303711 58.004342 120.525391 52.977684C 126.86139 45.433579 125.310425 30.779381 125.12024 29.1875C 123.519471 29.275231 108.817688 30.279419 102.48169 37.823517ZM 82.583252 18.636017C 86.804932 23.66269 85.499817 30.618859 80.669068 34.676033C 75.838257 38.733208 68.761231 38.816849 64.539551 33.790177C 58.203553 26.246079 59.754517 11.591881 59.944703 10C 61.545472 10.087731 76.247254 11.091919 82.583252 18.636017ZM 122.875245 128.809288C 109.906556 134.582192 105.854432 149.34124 111.402283 161.804314C 116.950196 174.267388 130.628724 181.133736 143.597352 175.360817C 163.060486 166.696923 173.926697 136.739998 175.064942 133.465294C 171.869935 132.119606 142.338379 120.145379 122.875245 128.809288ZM 62.189698 109.621788C 75.158387 115.394692 79.210511 130.15374 73.662659 142.616814C 68.114747 155.079888 54.436219 161.946236 41.467591 156.173317C 22.004456 147.509423 11.138245 117.552498 10 114.277794C 13.195008 112.932106 42.726563 100.957879 62.189698 109.621788ZM 90.978209 60.499389C 90.978209 50.957689 88.247409 41.544489 80.790709 34.715889C 91.004909 42.859689 93.987709 55.169589 94.163009 67.807289C 95.154909 64.641689 96.603209 60.019889 104.274509 53.903589C 98.251909 61.779989 94.297709 71.047089 94.297709 77.303889L 94.913809 118.503489C 96.402409 115.010389 100.713009 108.815489 107.826909 105.202189C 100.760809 110.787989 96.539409 122.048489 95.063809 128.533789L 95.755309 174.774889C 97.818809 171.163889 102.900009 165.189889 111.751909 161.746889C 102.908209 167.099889 95.755309 178.805889 95.888609 183.686889L 95.980709 189.845889C 97.969709 187.021889 103.065009 184.832889 109.506109 193.234889C 101.597309 184.676889 96.110009 192.618889 96.110009 198.494889L 96.832709 246.825889L 88.258409 246.825889L 89.095009 189.511889C 89.095009 184.659889 83.481509 176.899889 75.928409 185.072889C 82.124909 176.989889 87.075809 178.708889 89.213909 181.365889L 89.446809 165.411889C 89.583009 159.269889 82.589009 148.172889 73.314209 142.559889C 82.584009 146.164889 87.718709 152.545889 89.583009 156.081889L 90.248209 110.510689C 89.046509 104.299889 84.749709 91.951689 77.239209 86.014489C 84.806209 89.857889 89.201409 96.622289 90.402309 99.948989L 90.978209 60.499389Z"></path></g></g></g><g id="g-root-5.cu_1_sy_403p01dfqzgn-fill" data-item-order="999739127" data-item-id="5.cu_1_sy_403p01dfqzgn" data-item-class="Part Indexed Fill Stroke ColorFillBlack ColorStrokeBlack" data-item-index="5" data-renderer-id="0" transform="translate(751.7867431640625, 239.82626342773438)"><g id="5.cu_1_sy_403p01dfqzgn-fill" stroke="none" fill="#353535"><g><path d="M 10.449171 13.3142C 9.999971 11.631 11.356971 10 13.206671 10L 91.218971 10C 93.068671 10 94.425671 11.631 93.976571 13.3142L 92.197571 19.9809C 91.880871 21.1676 90.744071 22 89.440071 22L 14.985671 22C 13.681571 22 12.544771 21.1676 12.228171 19.9809L 10.449171 13.3142ZM 16.098023 22L 87.732023 22L 77.955623 79.7212C 77.689823 81.0462 76.523223 82 75.168223 82L 28.661823 82C 27.306823 82 26.140123 81.0462 25.874423 79.7212L 16.098023 22Z"></path></g></g></g><g id="g-root-4.cu_sy_hunn3o1dfr098-fill" data-item-order="999739129" data-item-id="4.cu_sy_hunn3o1dfr098" data-item-class="Part Indexed Fill Stroke" data-item-index="4" data-renderer-id="0" transform="translate(531.309814453125, 55.125946044921875)"><g id="4.cu_sy_hunn3o1dfr098-fill" stroke="none" fill="#404b29"><g><path d="M 76.177063 52.690155C 84.805726 59.808319 84.769471 71.868546 77.928833 80.160813C 71.088196 88.45308 59.254761 90.781388 50.626099 83.663239C 37.676331 72.980408 35.744507 47.944367 35.570984 45.218064C 38.280518 44.870194 63.227295 42.00734 76.177063 52.690155ZM 125.376282 141.586289C 121.268738 136.465928 114.19159 136.390335 109.270752 140.337784C 104.349915 144.285263 102.888672 151.210312 106.996155 156.330674C 113.160828 164.015427 127.836304 165.350113 129.434693 165.473832C 129.660645 163.886643 131.540894 149.271042 125.376282 141.586289ZM 102.796143 32.179978C 98.574463 37.206635 99.879578 44.162812 104.710328 48.219986C 109.541138 52.277161 116.618165 52.360794 120.839844 47.334137C 127.175843 39.790024 125.624878 25.135834 125.434693 23.543946C 123.833924 23.631684 109.132142 24.63588 102.796143 32.179978ZM 82.897706 18.636032C 87.119385 23.66269 85.81427 30.618866 80.983521 34.676041C 76.15271 38.733216 69.075684 38.816849 64.854004 33.790192C 58.518006 26.246079 60.06897 11.591889 60.259156 10C 61.859925 10.087738 76.561707 11.091935 82.897706 18.636032ZM 123.189698 76.684296C 110.221009 82.457199 106.168885 97.216248 111.716736 109.679322C 117.264649 122.142395 130.943177 129.008744 143.911805 123.235825C 163.374939 114.57193 174.24115 84.615006 175.379395 81.340302C 172.184388 79.994614 142.652832 68.020386 123.189698 76.684296ZM 62.189698 100.223359C 75.158387 105.996262 79.210511 120.75531 73.662659 133.218369C 68.114747 145.681443 54.436219 152.547806 41.467591 146.774887C 22.004456 138.110978 11.138245 108.154068 10 104.879364C 13.195008 103.533677 42.726563 91.559449 62.189698 100.223359ZM 91.322963 58.441997C 91.322963 52.183697 88.717463 41.685597 81.106663 34.715897C 89.274763 41.228297 93.999263 51.797397 94.450663 62.249797C 95.442563 59.084097 96.917663 54.376997 104.588963 48.260697C 98.547063 56.162297 94.602163 65.849997 94.602163 71.716997L 95.382063 124.005197C 96.793263 120.748297 101.983763 113.542997 112.066363 109.621997C 101.952663 115.743397 95.602963 128.719297 95.532263 134.076697L 95.602963 138.815897C 96.924663 135.632897 102.562863 131.641997 109.820863 141.108897C 100.443563 130.962897 95.761163 143.584897 95.761163 149.418897L 96.436563 194.700897L 89.283463 194.700897L 89.858563 156.281897C 89.858563 150.228897 83.079063 138.793897 73.628663 133.073597C 83.075263 136.746897 88.227463 143.303897 90.000563 146.794897L 90.627263 104.922597C 90.627263 98.856597 85.205763 86.130997 77.553663 80.081897C 85.277763 84.005097 89.697063 90.971797 90.787463 94.219097L 91.322963 58.441997Z"></path></g></g></g><g id="g-root-4.cu_1_sy_hunn3o1dfr099-fill" data-item-order="999739131" data-item-id="4.cu_1_sy_hunn3o1dfr099" data-item-class="Part Indexed Fill Stroke ColorFillBlack ColorStrokeBlack" data-item-index="4" data-renderer-id="0" transform="translate(571.7867431640625, 239.82626342773438)"><g id="4.cu_1_sy_hunn3o1dfr099-fill" stroke="none" fill="#353535"><g><path d="M 10.449171 13.3142C 9.999971 11.631 11.356971 10 13.206671 10L 91.218971 10C 93.068671 10 94.425671 11.631 93.976571 13.3142L 92.197571 19.9809C 91.880871 21.1676 90.744071 22 89.440071 22L 14.985671 22C 13.681571 22 12.544771 21.1676 12.228171 19.9809L 10.449171 13.3142ZM 16.098023 22L 87.732023 22L 77.955623 79.7212C 77.689823 81.0462 76.523223 82 75.168223 82L 28.661823 82C 27.306823 82 26.140123 81.0462 25.874423 79.7212L 16.098023 22Z"></path></g></g></g><g id="g-root-3.cu_sy_v645h01dfqyoa-fill" data-item-order="999739133" data-item-id="3.cu_sy_v645h01dfqyoa" data-item-class="Part Indexed Fill Stroke" data-item-index="3" data-renderer-id="0" transform="translate(376.8690490722656, 100.36032104492188)"><g id="3.cu_sy_v645h01dfqyoa-fill" stroke="none" fill="#2b503e"><g><path d="M 83.653839 51.516327C 75.025147 58.634491 75.061432 70.694718 81.902069 78.986985C 88.742706 87.279251 100.576111 89.60756 109.204804 82.489396C 122.154602 71.80658 124.086395 46.770539 124.259918 44.044236C 121.550354 43.696366 96.603638 40.833512 83.653839 51.516327ZM 50.60611 32.327851C 59.234802 39.446015 59.198517 51.506241 52.35788 59.798508C 45.517243 68.090775 33.683838 70.419083 25.055145 63.300934C 12.105347 52.618103 10.173584 27.582062 10 24.855759C 12.709595 24.507889 37.656311 21.645035 50.60611 32.327851ZM 35.281799 96.350937C 39.389313 91.230576 46.466461 91.154984 51.387299 95.102433C 56.308136 99.049912 57.769409 105.974961 53.661865 111.095322C 47.497223 118.780075 32.821747 120.114762 31.223328 120.23848C 30.997406 118.651291 29.117157 104.035691 35.281799 96.350937ZM 76.933197 18.636032C 72.711517 23.66269 74.016602 30.618866 78.847412 34.676041C 83.678192 38.733216 90.755249 38.816849 94.976929 33.790192C 101.312897 26.246079 99.761902 11.591889 99.571747 10C 97.970947 10.087738 83.269165 11.091935 76.933197 18.636032ZM 68.670382 60.242416C 68.670382 50.042516 72.089782 42.089316 78.723482 34.727616C 69.362682 42.788616 65.372582 50.855016 65.372582 63.304816L 65.220282 73.870316C 64.137182 70.628516 59.716482 63.648616 51.982182 59.720216C 59.656582 65.787016 65.065382 78.325516 65.065382 84.614116L 64.937282 93.501816C 63.564482 90.331016 58.043282 86.476316 50.837982 95.874916C 59.899682 86.070016 64.791782 97.715616 64.791782 103.595616L 64.130482 149.465616L 69.862182 149.465616L 69.208982 103.721816C 69.208982 97.476216 74.636782 84.948116 82.277682 78.907916C 74.581782 82.816816 70.166682 89.746916 69.055982 93.009316L 68.670382 60.242416Z"></path></g></g></g><g id="g-root-3.cu_1_sy_qqanck1dfqzgj-fill" data-item-order="999739135" data-item-id="3.cu_1_sy_qqanck1dfqzgj" data-item-class="Part Indexed Fill Stroke ColorFillBlack ColorStrokeBlack" data-item-index="3" data-renderer-id="0" transform="translate(391.7857360839844, 239.82626342773438)"><g id="3.cu_1_sy_qqanck1dfqzgj-fill" stroke="none" fill="#353535"><g><path d="M 10.449202 13.3142C 10.000002 11.631 11.357002 10 13.206702 10L 91.219002 10C 93.068702 10 94.425702 11.631 93.976602 13.3142L 92.197602 19.9809C 91.880902 21.1676 90.744102 22 89.440102 22L 14.985702 22C 13.681602 22 12.544802 21.1676 12.228202 19.9809L 10.449202 13.3142ZM 16.199616 22L 87.833616 22L 78.057216 79.7212C 77.791416 81.0462 76.624816 82 75.269816 82L 28.763416 82C 27.408416 82 26.241716 81.0462 25.976016 79.7212L 16.199616 22Z"></path></g></g></g><g id="g-root-2.cu_sy_141r5pw1dfqxvk-fill" data-item-order="999739137" data-item-id="2.cu_sy_141r5pw1dfqxvk" data-item-class="Part Indexed Fill Stroke" data-item-index="2" data-renderer-id="0" transform="translate(219.72991943359375, 146.11764526367188)"><g id="2.cu_sy_141r5pw1dfqxvk-fill" stroke="none" fill="#224754"><g><path d="M 60.289063 20.682815C 51.66037 27.800979 51.696656 39.861206 58.537293 48.153473C 65.37793 56.44574 77.211335 58.774048 85.840027 51.655884C 98.789826 40.973083 100.721589 15.937027 100.895173 13.210724C 98.185578 12.862854 73.238862 10 60.289063 20.682815ZM 34.3797 44.389435C 38.60138 49.416107 37.296296 56.372253 32.465485 60.429443C 27.634705 64.486603 20.557663 64.570251 16.335984 59.543579C 10 51.999481 11.55098 37.345306 11.741135 35.753418C 13.341935 35.841156 28.043732 36.845337 34.3797 44.389435ZM 58.912796 48.074768C 51.458796 53.967268 45.931496 64.574668 45.931496 72.429768L 46.497296 103.708968L 42.186896 103.708968L 42.353096 81.040868C 42.452596 74.652968 38.108196 66.607068 32.588196 60.481368C 39.937496 66.810268 41.847996 70.583968 42.894496 72.651468C 44.810396 61.876868 48.545696 53.340368 58.912796 48.074768Z"></path></g></g></g><g id="g-root-2.cu_1_sy_v645h01dfqyo9-fill" data-item-order="999739139" data-item-id="2.cu_1_sy_v645h01dfqyo9" data-item-class="Part Indexed Fill Stroke ColorFillBlack ColorStrokeBlack" data-item-index="2" data-renderer-id="0" transform="translate(211.78671264648438, 239.82644653320312)"><g id="2.cu_1_sy_v645h01dfqyo9-fill" stroke="none" fill="#353535"><g><path d="M 10.449201 13.3142C 10.000001 11.631 11.357001 10 13.206701 10L 91.219001 10C 93.068701 10 94.425701 11.631 93.976601 13.3142L 92.197601 19.9809C 91.880901 21.1676 90.744101 22 89.440101 22L 14.985701 22C 13.681601 22 12.544801 21.1676 12.228201 19.9809L 10.449201 13.3142ZM 16.199615 22L 87.833615 22L 78.057215 79.7212C 77.791415 81.0462 76.624815 82 75.269815 82L 28.763415 82C 27.408415 82 26.241715 81.0462 25.976015 79.7212L 16.199615 22Z"></path></g></g></g><g id="g-root-1.cu_sy_18gy6r81dfr092-fill" data-item-order="999739141" data-item-id="1.cu_sy_18gy6r81dfr092" data-item-class="Part Indexed Indexed_1 Fill Stroke" data-item-index="1" data-renderer-id="0" transform="translate(39.18135070800781, 199.72860717773438)"><g id="1.cu_sy_18gy6r81dfr092-fill" stroke="none" fill="#293f64"><g><path d="M 67.829563 11.152832C 63.527233 10 59.625003 12.799133 58.517131 16.933777C 57.409252 21.06842 59.389125 25.443634 63.691455 26.596435C 70.148479 28.326568 78.713192 23.166687 79.637294 22.592895C 79.123912 21.63385 74.286579 12.882965 67.829563 11.152832ZM 21.807727 11.152832C 26.110057 10 30.012287 12.799133 31.120159 16.933777C 32.228038 21.06842 30.248165 25.443634 25.945835 26.596435C 19.488811 28.326568 10.924095 23.166687 10 22.592895C 10.513374 21.63385 15.350711 12.882965 21.807727 11.152832ZM 44.819115 22.449425C 43.418515 19.265925 38.784015 14.600625 30.753215 17.099525C 38.990515 15.399725 43.462715 23.483425 43.462715 27.765125L 43.310015 49.344325L 46.199215 49.344325L 46.175615 27.765125C 46.199215 23.026325 50.647815 15.399725 58.885115 17.099525C 50.854315 14.600625 46.219815 19.265925 44.819115 22.449425Z"></path></g></g></g><g id="g-root-1.cu_1_sy_18gy6r81dfr093-fill" data-item-order="999739143" data-item-id="1.cu_1_sy_18gy6r81dfr093" data-item-class="Part Indexed Indexed_1 Fill Stroke ColorFillBlack ColorStrokeBlack" data-item-index="1" data-renderer-id="0" transform="translate(31.786712646484375, 239.82626342773438)"><g id="1.cu_1_sy_18gy6r81dfr093-fill" stroke="none" fill="#353535"><g><path d="M 10.449201 13.3142C 10.000001 11.631 11.357001 10 13.206701 10L 91.219001 10C 93.068701 10 94.425701 11.631 93.976601 13.3142L 92.197601 19.9809C 91.880901 21.1676 90.744101 22 89.440101 22L 14.985701 22C 13.681601 22 12.544801 21.1676 12.228201 19.9809L 10.449201 13.3142ZM 16.199615 22L 87.833615 22L 78.057215 79.7212C 77.791415 81.0462 76.624815 82 75.269815 82L 28.763415 82C 27.408415 82 26.241715 81.0462 25.976015 79.7212L 16.199615 22Z"></path></g></g></g><g id="g-root-book_4jtoz81dfms5r-fill" data-item-order="1000000000" data-item-id="book_4jtoz81dfms5r" data-item-class="Icon Stroke Indexed Indexed_1 InsideFill InsideColorFill InsideBlackFill" data-item-index="1" data-renderer-id="0" transform="translate(56, 263.8262634277344)"></g><g id="g-root-neur_1qbz4xg1dflc05-fill" data-item-order="1000000000" data-item-id="neur_1qbz4xg1dflc05" data-item-class="Icon Stroke Indexed InsideFill InsideColorFill InsideBlackFill" data-item-index="2" data-renderer-id="0" transform="translate(236, 263.8262634277344)"></g><g id="g-root-netw_qqx7lg1dflceb-fill" data-item-order="1000000000" data-item-id="netw_qqx7lg1dflceb" data-item-class="Icon Stroke Indexed InsideFill InsideColorFill InsideBlackFill" data-item-index="3" data-renderer-id="0" transform="translate(416, 263.8262634277344)"></g><g id="g-root-chip_hva7ck1dfld70-fill" data-item-order="1000000000" data-item-id="chip_hva7ck1dfld70" data-item-class="Icon Stroke Indexed InsideFill InsideColorFill InsideBlackFill" data-item-index="4" data-renderer-id="0" transform="translate(596, 263.8262634277344)"></g><g id="g-root-top_i0a01g1dflclq-fill" data-item-order="1000000000" data-item-id="top_i0a01g1dflclq" data-item-class="Icon Stroke Indexed InsideFill InsideColorFill InsideBlackFill" data-item-index="5" data-renderer-id="0" transform="translate(776, 263.8262634277344)"></g><g id="g-root-tx_entendie_1cwrovo1dfqzgs-fill" data-item-order="1000000000" data-item-id="tx_entendie_1cwrovo1dfqzgs" data-item-class="Label Stroke Indexed Indexed_1 ColorStrokeGray" data-item-index="1" data-renderer-id="0" transform="translate(2, 335.8262634277344)"><g id="tx_entendie_1cwrovo1dfqzgs-fill" stroke="none" fill="#A3A3A3"><g><text style="font: 20px Roboto, sans-serif; white-space: pre;" font-weight="20px" font-size="Roboto," font-family="sans-serif"><tspan x="13.67" y="33.5" dominant-baseline="ideographic">Entendiendo la </tspan><tspan x="28.72" y="57.5" dominant-baseline="ideographic">Adaptación</tspan></text></g></g></g><g id="g-root-tx_exploran_1lsep4k1dfqyo3-fill" data-item-order="1000000000" data-item-id="tx_exploran_1lsep4k1dfqyo3" data-item-class="Label Stroke Indexed ColorStrokeGray" data-item-index="2" data-renderer-id="0" transform="translate(182, 335.8262634277344)"><g id="tx_exploran_1lsep4k1dfqyo3-fill" stroke="none" fill="#A3A3A3"><g><text style="font: 20px Roboto, sans-serif; white-space: pre;" font-weight="20px" font-size="Roboto," font-family="sans-serif"><tspan x="43.71" y="33.5" dominant-baseline="ideographic">Desde la </tspan><tspan x="14.6" y="57.5" dominant-baseline="ideographic">Neurofisiología</tspan></text></g></g></g><g id="g-root-tx_investig_1lsep4k1dfqyo2-fill" data-item-order="1000000000" data-item-id="tx_investig_1lsep4k1dfqyo2" data-item-class="Label Stroke Indexed ColorStrokeGray" data-item-index="3" data-renderer-id="0" transform="translate(362, 335.8262634277344)"><g id="tx_investig_1lsep4k1dfqyo2-fill" stroke="none" fill="#A3A3A3"><g><text style="font: 20px Roboto, sans-serif; white-space: pre;" font-weight="20px" font-size="Roboto," font-family="sans-serif"><tspan x="12.25" y="33.5" dominant-baseline="ideographic">Investigando el </tspan><tspan x="23.98" y="57.5" dominant-baseline="ideographic">Eje Corazón-</tspan><tspan x="44.53" y="81.5" dominant-baseline="ideographic">Cerebro</tspan></text></g></g></g><g id="g-root-tx_analizan_1q887901dfqxvt-fill" data-item-order="1000000000" data-item-id="tx_analizan_1q887901dfqxvt" data-item-class="Label Stroke Indexed ColorStrokeGray" data-item-index="4" data-renderer-id="0" transform="translate(524, 335.8262634277344)"><g id="tx_analizan_1q887901dfqxvt-fill" stroke="none" fill="#A3A3A3"><g><text style="font: 20px Roboto, sans-serif; white-space: pre;" font-weight="20px" font-size="Roboto," font-family="sans-serif"><tspan x="33.26" y="33.5" dominant-baseline="ideographic">Analizando los </tspan><tspan x="17.39" y="57.5" dominant-baseline="ideographic">mecanismos de la </tspan><tspan x="19.31" y="81.5" dominant-baseline="ideographic">Neuromodulación</tspan></text></g></g></g><g id="g-root-tx_logrando_24ofo1dfr0g0-fill" data-item-order="1000000000" data-item-id="tx_logrando_24ofo1dfr0g0" data-item-class="Label Stroke Indexed ColorStrokeGray" data-item-index="5" data-renderer-id="0" transform="translate(728, 335.8262634277344)"><g id="tx_logrando_24ofo1dfr0g0-fill" stroke="none" fill="#A3A3A3"><g><text style="font: 20px Roboto, sans-serif; white-space: pre;" font-weight="20px" font-size="Roboto," font-family="sans-serif"><tspan x="12.39" y="33.5" dominant-baseline="ideographic">Logrando una </tspan><tspan x="22.72" y="57.5" dominant-baseline="ideographic">Adaptación </tspan><tspan x="41.14" y="81.5" dominant-baseline="ideographic">Óptima</tspan></text></g></g></g><g id="g-root-5.cu_sy_4jtltg1dfqyoe-stroke" data-item-order="999739125" data-item-id="5.cu_sy_4jtltg1dfqyoe" data-item-class="Part Indexed Fill Stroke" data-item-index="5" data-renderer-id="0" transform="translate(711.466064453125, 3)"><g id="5.cu_sy_4jtltg1dfqyoe-stroke" fill="none" stroke-linecap="round" stroke-linejoin="round" stroke-miterlimit="4" stroke="#FFE60A" stroke-width="2"><g><path d="M 107.451539 105.279946C 100.610901 96.987679 100.574646 84.927453 109.203309 77.809288C 122.153077 67.126473 147.099854 69.989327 149.809388 70.337197C 149.635865 73.0635 147.704041 98.099541 134.754273 108.782372C 126.125611 115.900521 114.292176 113.572213 107.451539 105.279946ZM 107.451172 105.279641L 145.002686 74.301827M 141.446412 85.066445C 139.267457 84.100258 133.443055 84.298714 130.201905 86.51191C 132.990845 83.750481 134.292969 78.070107 133.758545 75.747139M 137.258973 94.509392C 133.890259 92.411141 125.67688 91.058037 121.704407 93.522149C 124.878846 90.09063 125.111695 81.769738 123.692139 78.063546M 130.845582 103.485146C 126.594727 100.813912 116.261475 99.041863 111.289246 102.113961C 115.250611 97.816506 115.475281 87.334771 113.660828 82.653679M 77.615357 86.093422C 84.455994 77.801156 84.492249 65.740929 75.863587 58.622765C 62.913819 47.939949 37.967041 50.802811 35.257508 51.150673C 35.431031 53.876976 37.362854 78.913018 50.312623 89.595849C 58.941285 96.713997 70.77472 94.385689 77.615357 86.093422ZM 77.615723 86.093117L 40.064209 55.115304M 43.620484 65.879921C 45.799439 64.913735 51.623841 65.112191 54.864991 67.325387C 52.07605 64.563958 50.773926 58.883584 51.30835 56.560616M 47.807923 75.322869C 51.176636 73.224617 59.390015 71.871514 63.362488 74.335625C 60.18805 70.904107 59.955201 62.583214 61.374756 58.877022M 54.221253 84.298638C 58.472107 81.627404 68.805359 79.855355 73.777588 82.927453C 69.816224 78.629998 69.591553 68.148262 71.406006 63.467171M 76.560486 184.564492C 68.95929 176.963326 56.957642 175.775597 49.048096 183.685158C 37.177491 195.555703 37.645203 220.661812 37.732728 223.39222C 40.463135 223.479775 65.569275 223.947457 77.43982 212.076912C 85.349366 204.167336 84.161683 192.165688 76.560486 184.564492ZM 76.561341 184.564431L 42.139405 218.986397M 53.193787 216.474221C 52.440125 214.21296 53.193787 208.434121 55.70636 205.419106C 52.691285 207.931588 46.912537 208.685372 44.651185 207.931588M 62.992005 213.20823C 61.224976 209.654519 60.662354 201.349495 63.494507 197.630471C 59.775574 200.462716 51.470459 199.900002 47.916749 198.133004M 72.540101 207.680306C 70.286988 203.193856 69.509705 192.738595 73.042603 188.082436C 68.386475 191.615334 57.931214 190.838082 53.444764 188.584969M 108.956299 192.462777C 113.877137 188.515328 120.954285 188.59092 125.061829 193.711281C 131.226441 201.396035 129.346192 216.011635 129.12024 217.598824C 127.521851 217.475106 112.846375 216.140419 106.681702 208.455666C 102.574219 203.335305 104.035462 196.410256 108.956299 192.462777ZM 108.956238 192.462838L 125.053467 212.529366M 116.50354 211.009194C 117.653565 209.217843 118.439637 204.82267 117.147156 202.673989C 118.964356 204.401741 123.425415 204.587685 125.423584 203.853585M 110.472901 205.816964C 111.922852 203.578072 112.939515 198.101326 111.343567 195.437508C 113.59784 197.57322 119.164612 197.768776 121.664734 196.838936M 104.395874 53.863533C 99.565125 49.806359 98.26001 42.85019 102.48169 37.823517C 108.817688 30.279419 123.519471 29.275231 125.12024 29.1875C 125.310425 30.779381 126.86139 45.433579 120.525391 52.977684C 116.303711 58.004342 109.226685 57.920708 104.395874 53.863533ZM 104.395386 53.863564L 120.940003 34.164277M 121.116944 42.844796C 119.135804 42.065918 114.671692 42.151467 112.816102 43.837944C 114.156556 41.718842 113.469544 37.307091 112.360108 35.490304M 117.199585 49.773507C 114.72107 48.787652 109.151185 48.857872 106.849488 50.94233C 108.504883 48.315072 107.611817 42.816918 106.212586 40.545968M 80.669068 34.676033C 85.499817 30.618859 86.804932 23.66269 82.583252 18.636017C 76.247254 11.091919 61.545472 10.087731 59.944703 10C 59.754517 11.591881 58.203553 26.246079 64.539551 33.790177C 68.761231 38.816849 75.838257 38.733208 80.669068 34.676033ZM 80.669434 34.676049L 64.124817 14.976754M 63.948975 23.657296C 65.930115 22.878418 70.394227 22.963967 72.249817 24.650444C 70.909363 22.531342 71.596375 18.119591 72.705811 16.302804M 67.865296 30.586007C 70.343811 29.600152 75.913697 29.670372 78.215394 31.75483C 76.559998 29.127572 77.453064 23.629418 78.852295 21.358468M 111.402283 161.804314C 105.854432 149.34124 109.906556 134.582192 122.875245 128.809288C 142.338379 120.145379 171.869935 132.119606 175.064942 133.465294C 173.926697 136.739998 163.060486 166.696923 143.597352 175.360817C 130.628724 181.133736 116.950196 174.267388 111.402283 161.804314ZM 111.402588 161.804177L 167.84137 136.680794M 159.836304 148.634652C 157.500123 146.713021 150.310853 144.977395 145.595887 146.58268C 149.944092 144.15345 153.465699 137.64991 153.601319 134.627999M 151.508484 158.758751C 148.102051 155.048821 138.518677 150.604393 132.824219 152.268151C 137.871399 149.150353 140.982544 139.055047 140.505555 134.041085M 140.616394 167.555947C 136.32605 162.845833 124.292786 157.169106 117.169495 159.236748C 123.472962 155.327431 127.307984 142.587044 126.679383 136.246926M 73.662659 142.616814C 79.210511 130.15374 75.158387 115.394692 62.189698 109.621788C 42.726563 100.957879 13.195008 112.932106 10 114.277794C 11.138245 117.552498 22.004456 147.509423 41.467591 156.173317C 54.436219 161.946236 68.114747 155.079888 73.662659 142.616814ZM 73.662171 142.616616L 17.223389 117.493233M 25.228638 129.447152C 27.56482 127.525521 34.75409 125.789895 39.469056 127.39518C 35.12085 124.96595 31.599244 118.46241 31.463624 115.440499M 33.556397 139.571251C 36.96283 135.861321 46.546204 131.416893 52.240662 133.080651C 47.193482 129.962853 44.082337 119.867547 44.559327 114.853585M 44.448487 148.36866C 48.738831 143.658547 60.772095 137.98182 67.895386 140.049462C 61.591919 136.140145 57.756897 123.399758 58.385499 117.059639M 90.978209 60.499389C 90.978209 50.957689 88.247409 41.544489 80.790609 34.715889C 91.004909 42.859689 93.987709 55.169589 94.163009 67.807289C 95.154909 64.641689 96.603209 60.019889 104.274509 53.903589C 98.251909 61.779989 94.297709 71.047089 94.297709 77.303889L 94.913809 118.503489C 96.402409 115.010389 100.713009 108.815489 107.826909 105.202189C 100.760809 110.787989 96.539409 122.048489 95.063809 128.533789L 95.755309 174.774389C 97.818809 171.163489 102.900009 165.189589 111.751909 161.747089C 102.908209 167.099889 95.755309 178.805389 95.888609 183.686789L 95.980709 189.846289C 97.969709 187.022189 103.065009 184.832789 109.506109 193.234689C 101.597309 184.677189 96.110009 192.618589 96.110009 198.495289L 96.832709 246.825589L 88.258409 246.825589L 89.095009 189.512089C 89.095009 184.659589 83.481509 176.899989 75.928409 185.072489C 82.124909 176.989889 87.075809 178.708989 89.213909 181.365589L 89.446809 165.412189C 89.583009 159.269589 82.589009 148.173189 73.314209 142.559489C 82.584009 146.164389 87.718709 152.545489 89.583009 156.081889L 90.248209 110.510689C 89.046509 104.299889 84.749709 91.951689 77.239209 86.014489C 84.806209 89.857889 89.201409 96.622289 90.402309 99.948989L 90.978209 60.499389Z"></path></g></g></g><g id="g-root-5.cu_1_sy_403p01dfqzgn-stroke" data-item-order="999739127" data-item-id="5.cu_1_sy_403p01dfqzgn" data-item-class="Part Indexed Fill Stroke ColorFillBlack ColorStrokeBlack" data-item-index="5" data-renderer-id="0" transform="translate(751.7867431640625, 239.82626342773438)"><g id="5.cu_1_sy_403p01dfqzgn-stroke" fill="none" stroke-linecap="round" stroke-linejoin="round" stroke-miterlimit="4" stroke="#666666" stroke-width="2"><g><path d="M 10.449171 13.3142C 9.999971 11.631 11.356971 10 13.206671 10L 91.218971 10C 93.068671 10 94.425671 11.631 93.976571 13.3142L 92.197571 19.9809C 91.880871 21.1676 90.744071 22 89.440071 22L 14.985671 22C 13.681571 22 12.544771 21.1676 12.228171 19.9809L 10.449171 13.3142ZM 16.098023 22L 87.732023 22L 77.955623 79.7212C 77.689823 81.0462 76.523223 82 75.168223 82L 28.661823 82C 27.306823 82 26.140123 81.0462 25.874423 79.7212L 16.098023 22Z"></path></g></g></g><g id="g-root-4.cu_sy_hunn3o1dfr098-stroke" data-item-order="999739129" data-item-id="4.cu_sy_hunn3o1dfr098" data-item-class="Part Indexed Fill Stroke" data-item-index="4" data-renderer-id="0" transform="translate(531.309814453125, 55.125946044921875)"><g id="4.cu_sy_hunn3o1dfr098-stroke" fill="none" stroke-linecap="round" stroke-linejoin="round" stroke-miterlimit="4" stroke="#A8DD38" stroke-width="2"><g><path d="M 77.928833 80.160813C 84.769471 71.868546 84.805726 59.808319 76.177063 52.690155C 63.227295 42.00734 38.280518 44.870194 35.570984 45.218064C 35.744507 47.944367 37.676331 72.980408 50.626099 83.663239C 59.254761 90.781388 71.088196 88.45308 77.928833 80.160813ZM 77.9292 80.160508L 40.377686 49.182694M 43.93396 59.947312C 46.112915 58.981125 51.937317 59.179581 55.178467 61.392777C 52.389527 58.631348 51.087403 52.950974 51.621827 50.628006M 48.121399 69.390259C 51.490113 67.292008 59.703492 65.938904 63.675965 68.403016C 60.501526 64.971497 60.268677 56.650605 61.688233 52.944413M 54.53479 78.366028C 58.785645 75.694794 69.118897 73.922745 74.091126 76.994843C 70.129761 72.697388 69.905091 62.215653 71.719544 57.534562M 109.270752 140.337784C 114.19159 136.390335 121.268738 136.465928 125.376282 141.586289C 131.540894 149.271042 129.660645 163.886643 129.434693 165.473832C 127.836304 165.350113 113.160828 164.015427 106.996155 156.330674C 102.888672 151.210312 104.349915 144.285263 109.270752 140.337784ZM 109.270691 140.336869L 125.36792 160.403397M 116.817994 158.884201C 117.968018 157.09285 118.75409 152.697678 117.461609 150.548996C 119.278809 152.276749 123.739869 152.462693 125.738038 151.728592M 110.787415 153.691971C 112.237366 151.45308 113.254029 145.976334 111.658082 143.312516C 113.912354 145.448227 119.479126 145.643784 121.979249 144.713944M 104.710328 48.219986C 99.879578 44.162812 98.574463 37.206635 102.796143 32.179978C 109.132142 24.63588 123.833924 23.631684 125.434693 23.543946C 125.624878 25.135834 127.175843 39.790024 120.839844 47.334137C 116.618165 52.360794 109.541138 52.277161 104.710328 48.219986ZM 104.709961 48.220002L 121.254578 28.520707M 121.431397 37.201249C 119.450257 36.422364 114.986145 36.50792 113.130555 38.194397C 114.471009 36.075287 113.783997 31.663544 112.674561 29.846756M 117.5141 44.12996C 115.035584 43.144104 109.465699 43.214325 107.164002 45.298783C 108.819397 42.671524 107.926331 37.173371 106.5271 34.90242M 80.983521 34.676041C 85.81427 30.618866 87.119385 23.66269 82.897706 18.636032C 76.561707 11.091935 61.859925 10.087738 60.259156 10C 60.06897 11.591889 58.518006 26.246079 64.854004 33.790192C 69.075684 38.816849 76.15271 38.733216 80.983521 34.676041ZM 80.983887 34.676056L 64.43927 14.976761M 64.262452 23.657303C 66.243592 22.878418 70.707703 22.963974 72.563294 24.650452C 71.22284 22.531342 71.909852 18.119599 73.019288 16.302811M 68.179749 30.586014C 70.658265 29.600159 76.22815 29.67038 78.529847 31.754837C 76.874451 29.127579 77.767518 23.629425 79.166749 21.358475M 111.716736 109.679322C 106.168885 97.216248 110.221009 82.457199 123.189698 76.684296C 142.652832 68.020386 172.184388 79.994614 175.379395 81.340302C 174.24115 84.615006 163.374939 114.57193 143.911805 123.235825C 130.943177 129.008744 117.264649 122.142395 111.716736 109.679322ZM 111.717041 109.679184L 168.155823 84.555802M 160.150757 96.509659C 157.814576 94.588028 150.625306 92.852402 145.91034 94.457688C 150.258545 92.028458 153.780152 85.524918 153.915772 82.503006M 151.822999 106.633759C 148.416565 102.923829 138.833191 98.479401 133.138733 100.143158C 138.185914 97.025361 141.297059 86.930054 140.820069 81.916092M 140.930909 115.430954C 136.640564 110.720841 124.6073 105.044114 117.484009 107.111756C 123.787476 103.202439 127.622498 90.462052 126.993897 84.121933M 73.662659 133.218369C 79.210511 120.75531 75.158387 105.996262 62.189698 100.223359C 42.726563 91.559449 13.195008 103.533677 10 104.879364C 11.138245 108.154068 22.004456 138.110978 41.467591 146.774887C 54.436219 152.547806 68.114747 145.681443 73.662659 133.218369ZM 73.976624 133.130295L 17.537842 108.006913M 25.544068 119.960831C 27.880249 118.0392 35.069519 116.303574 39.784485 117.90886C 35.43628 115.47963 31.914673 108.97609 31.779053 105.954178M 33.87085 130.083939C 37.277283 126.374024 46.860657 121.929596 52.555115 123.593354C 47.507935 120.475556 44.39679 110.380249 44.87378 105.366288M 44.76294 138.88234C 49.053284 134.172226 61.086548 128.495499 68.209839 130.563126C 61.906373 126.653824 58.071351 113.913437 58.699952 107.573319M 91.322963 58.441997C 91.322963 52.183697 88.717463 41.685597 81.106663 34.715897C 89.274763 41.228297 93.999263 51.797397 94.450663 62.249797C 95.442563 59.084097 96.917663 54.376997 104.588963 48.260697C 98.547063 56.162297 94.602163 65.849997 94.602163 71.716997L 95.382063 124.005197C 96.793263 120.748297 101.983763 113.542997 112.066363 109.621997C 101.952663 115.743397 95.602963 128.719297 95.532263 134.076697L 95.602963 138.815997C 96.924663 135.632797 102.562863 131.641997 109.820763 141.109297C 100.443563 130.962897 95.761163 143.584897 95.761163 149.419197L 96.436563 194.700397L 89.283463 194.700397L 89.858563 156.281497C 89.858563 150.228397 83.079063 138.793497 73.628663 133.073597C 83.075263 136.747197 88.227463 143.303997 90.000563 146.795197L 90.627263 104.922597C 90.627263 98.856597 85.205763 86.130997 77.553663 80.081897C 85.277763 84.005097 89.697063 90.971797 90.787463 94.219097L 91.322963 58.441997Z"></path></g></g></g><g id="g-root-4.cu_1_sy_hunn3o1dfr099-stroke" data-item-order="999739131" data-item-id="4.cu_1_sy_hunn3o1dfr099" data-item-class="Part Indexed Fill Stroke ColorFillBlack ColorStrokeBlack" data-item-index="4" data-renderer-id="0" transform="translate(571.7867431640625, 239.82626342773438)"><g id="4.cu_1_sy_hunn3o1dfr099-stroke" fill="none" stroke-linecap="round" stroke-linejoin="round" stroke-miterlimit="4" stroke="#666666" stroke-width="2"><g><path d="M 10.449171 13.3142C 9.999971 11.631 11.356971 10 13.206671 10L 91.218971 10C 93.068671 10 94.425671 11.631 93.976571 13.3142L 92.197571 19.9809C 91.880871 21.1676 90.744071 22 89.440071 22L 14.985671 22C 13.681571 22 12.544771 21.1676 12.228171 19.9809L 10.449171 13.3142ZM 16.098023 22L 87.732023 22L 77.955623 79.7212C 77.689823 81.0462 76.523223 82 75.168223 82L 28.661823 82C 27.306823 82 26.140123 81.0462 25.874423 79.7212L 16.098023 22Z"></path></g></g></g><g id="g-root-3.cu_sy_v645h01dfqyoa-stroke" data-item-order="999739133" data-item-id="3.cu_sy_v645h01dfqyoa" data-item-class="Part Indexed Fill Stroke" data-item-index="3" data-renderer-id="0" transform="translate(376.8690490722656, 100.36032104492188)"><g id="3.cu_sy_v645h01dfqyoa-stroke" fill="none" stroke-linecap="round" stroke-linejoin="round" stroke-miterlimit="4" stroke="#44E095" stroke-width="2"><g><path d="M 81.902069 78.986985C 75.061432 70.694718 75.025147 58.634491 83.653839 51.516327C 96.603638 40.833512 121.550354 43.696366 124.259918 44.044236C 124.086395 46.770539 122.154602 71.80658 109.204804 82.489396C 100.576111 89.60756 88.742706 87.279251 81.902069 78.986985ZM 81.901672 78.986679L 119.453217 48.008866M 115.896942 58.773484C 113.717987 57.807297 107.893616 58.005753 104.652435 60.218949C 107.441345 57.45752 108.743469 51.777146 108.209076 49.454178M 111.709534 68.216431C 108.34079 66.11818 100.127411 64.765076 96.154938 67.229187C 99.329346 63.797669 99.562256 55.476777 98.14267 51.770585M 105.296112 77.192185C 101.045319 74.520951 90.712036 72.748902 85.739807 75.821C 89.701172 71.523545 89.925812 61.041809 88.111389 56.360718M 52.35788 59.798508C 59.198517 51.506241 59.234802 39.446015 50.60611 32.327851C 37.656311 21.645035 12.709595 24.507889 10 24.855759C 10.173584 27.582062 12.105347 52.618103 25.055145 63.300934C 33.683838 70.419083 45.517243 68.090775 52.35788 59.798508ZM 52.358276 59.798203L 14.806732 28.820389M 18.248749 39.585007C 20.427704 38.618821 26.252075 38.817276 29.493256 41.030472C 26.704346 38.269043 25.402222 32.588669 25.936615 30.265702M 22.436157 49.027954C 25.804901 46.929703 34.01828 45.5766 37.990753 48.040711C 34.816345 44.609192 34.583435 36.2883 36.003021 32.582108M 28.850525 58.003724C 33.101318 55.332489 43.434601 53.56044 48.40683 56.632538C 44.445465 52.335083 44.220825 41.853348 46.035248 37.172257M 51.387299 95.102433C 46.466461 91.154984 39.389313 91.230576 35.281799 96.350937C 29.117157 104.035691 30.997406 118.651291 31.223328 120.23848C 32.821747 120.114762 47.497223 118.780075 53.661865 111.095322C 57.769409 105.974961 56.308136 99.049912 51.387299 95.102433ZM 51.387421 95.102646L 35.290192 115.169175M 43.840088 113.64885C 42.690033 111.857499 41.903961 107.462326 43.196472 105.313645C 41.379242 107.041397 36.918182 107.227341 34.920014 106.493241M 49.870636 108.45662C 48.420654 106.217728 47.404022 100.740982 48.999939 98.077164C 46.745697 100.212876 41.178894 100.408432 38.678803 99.478592M 78.847412 34.676041C 74.016602 30.618866 72.711517 23.66269 76.933197 18.636032C 83.269165 11.091935 97.970947 10.087738 99.571747 10C 99.761902 11.591889 101.312897 26.246079 94.976929 33.790192C 90.755249 38.816849 83.678192 38.733216 78.847412 34.676041ZM 78.846985 34.676056L 95.391602 14.976761M 95.568451 23.65828C 93.587311 22.879395 89.1232 22.964951 87.267639 24.651429C 88.608063 22.532319 87.921082 18.120575 86.811615 16.303788M 91.651184 30.586014C 89.172638 29.600159 83.602783 29.67038 81.301056 31.754837C 82.956482 29.127579 82.063416 23.629425 80.664154 21.358475M 68.670382 60.242416C 68.670382 50.042516 72.089782 42.089316 78.723482 34.727616C 69.362682 42.788616 65.372582 50.855016 65.372582 63.304816L 65.220282 73.870216C 64.137182 70.628516 59.716482 63.648616 51.982182 59.720216C 59.656582 65.787016 65.065382 78.325516 65.065382 84.614116L 64.937282 93.501816C 63.564482 90.331016 58.043282 86.476316 50.837982 95.874916C 59.899682 86.070016 64.791782 97.715616 64.791782 103.595616L 64.130482 149.465816L 69.862182 149.465816L 69.208982 103.721816C 69.208982 97.476216 74.636782 84.948116 82.277682 78.907916C 74.581782 82.816816 70.166682 89.746916 69.055982 93.009316L 68.670382 60.242416Z"></path></g></g></g><g id="g-root-3.cu_1_sy_qqanck1dfqzgj-stroke" data-item-order="999739135" data-item-id="3.cu_1_sy_qqanck1dfqzgj" data-item-class="Part Indexed Fill Stroke ColorFillBlack ColorStrokeBlack" data-item-index="3" data-renderer-id="0" transform="translate(391.7857360839844, 239.82626342773438)"><g id="3.cu_1_sy_qqanck1dfqzgj-stroke" fill="none" stroke-linecap="round" stroke-linejoin="round" stroke-miterlimit="4" stroke="#666666" stroke-width="2"><g><path d="M 10.449202 13.3142C 10.000002 11.631 11.357002 10 13.206702 10L 91.219002 10C 93.068702 10 94.425702 11.631 93.976602 13.3142L 92.197602 19.9809C 91.880902 21.1676 90.744102 22 89.440102 22L 14.985702 22C 13.681602 22 12.544802 21.1676 12.228202 19.9809L 10.449202 13.3142ZM 16.199616 22L 87.833616 22L 78.057216 79.7212C 77.791416 81.0462 76.624816 82 75.269816 82L 28.763416 82C 27.408416 82 26.241716 81.0462 25.976016 79.7212L 16.199616 22Z"></path></g></g></g><g id="g-root-2.cu_sy_141r5pw1dfqxvk-stroke" data-item-order="999739137" data-item-id="2.cu_sy_141r5pw1dfqxvk" data-item-class="Part Indexed Fill Stroke" data-item-index="2" data-renderer-id="0" transform="translate(219.72991943359375, 146.11764526367188)"><g id="2.cu_sy_141r5pw1dfqxvk-stroke" fill="none" stroke-linecap="round" stroke-linejoin="round" stroke-miterlimit="4" stroke="#1AC6FF" stroke-width="2"><g><path d="M 58.537293 48.153473C 51.696656 39.861206 51.66037 27.800979 60.289063 20.682815C 73.238862 10 98.185578 12.862854 100.895173 13.210724C 100.721589 15.937027 98.789826 40.973083 85.840027 51.655884C 77.211335 58.774048 65.37793 56.44574 58.537293 48.153473ZM 58.536896 48.153168L 96.08844 17.175354M 92.532166 27.939972C 90.353211 26.973785 84.52884 27.172241 81.287659 29.385437C 84.076569 26.624008 85.378693 20.943634 84.8443 18.620666M 88.344758 37.382904C 84.976014 35.284668 76.762635 33.931564 72.790162 36.395691C 75.96457 32.964157 76.19748 24.643265 74.777894 20.937073M 81.931336 46.358673C 77.680542 43.687439 67.34726 41.915375 62.375031 44.987488C 66.336396 40.690033 66.561036 30.208298 64.746613 25.527206M 32.465485 60.429443C 37.296296 56.372253 38.60138 49.416107 34.3797 44.389435C 28.043732 36.845337 13.341935 35.841156 11.741135 35.753418C 11.55098 37.345306 10 51.999481 16.335984 59.543579C 20.557663 64.570251 27.634705 64.486603 32.465485 60.429443ZM 32.465882 60.429443L 15.92128 40.730163M 15.744446 49.411682C 17.725602 48.632812 22.189698 48.718353 24.045273 50.404816C 22.704819 48.285736 23.391831 43.873962 24.501282 42.05719M 19.661713 56.339416C 22.140259 55.353577 27.710114 55.423797 30.011841 57.50824C 28.356415 54.880981 29.249482 49.382812 30.648743 47.111877M 58.912796 48.074768C 51.458796 53.967268 45.931496 64.574668 45.931496 72.429768L 46.497296 103.708968L 42.186896 103.708968L 42.353096 81.040868C 42.452496 74.652968 38.108196 66.607068 32.588196 60.481368C 39.937496 66.810268 41.847996 70.583968 42.894496 72.651468C 44.810396 61.876868 48.545696 53.340368 58.912796 48.074768Z"></path></g></g></g><g id="g-root-2.cu_1_sy_v645h01dfqyo9-stroke" data-item-order="999739139" data-item-id="2.cu_1_sy_v645h01dfqyo9" data-item-class="Part Indexed Fill Stroke ColorFillBlack ColorStrokeBlack" data-item-index="2" data-renderer-id="0" transform="translate(211.78671264648438, 239.82644653320312)"><g id="2.cu_1_sy_v645h01dfqyo9-stroke" fill="none" stroke-linecap="round" stroke-linejoin="round" stroke-miterlimit="4" stroke="#666666" stroke-width="2"><g><path d="M 10.449201 13.3142C 10.000001 11.631 11.357001 10 13.206701 10L 91.219001 10C 93.068701 10 94.425701 11.631 93.976601 13.3142L 92.197601 19.9809C 91.880901 21.1676 90.744101 22 89.440101 22L 14.985701 22C 13.681601 22 12.544801 21.1676 12.228201 19.9809L 10.449201 13.3142ZM 16.199615 22L 87.833615 22L 78.057215 79.7212C 77.791415 81.0462 76.624815 82 75.269815 82L 28.763415 82C 27.408415 82 26.241715 81.0462 25.976015 79.7212L 16.199615 22Z"></path></g></g></g><g id="g-root-1.cu_sy_18gy6r81dfr092-stroke" data-item-order="999739141" data-item-id="1.cu_sy_18gy6r81dfr092" data-item-class="Part Indexed Indexed_1 Fill Stroke" data-item-index="1" data-renderer-id="0" transform="translate(39.18135070800781, 199.72860717773438)"><g id="1.cu_sy_18gy6r81dfr092-stroke" fill="none" stroke-linecap="round" stroke-linejoin="round" stroke-miterlimit="4" stroke="#4F92FF" stroke-width="2"><g><path d="M 58.517131 16.933777C 59.625003 12.799133 63.527233 10 67.829563 11.152832C 74.286579 12.882965 79.123912 21.63385 79.637294 22.592895C 78.713192 23.166687 70.148479 28.326568 63.691455 26.596435C 59.389125 25.443634 57.409252 21.06842 58.517131 16.933777ZM 58.517597 16.93338L 75.378215 21.451172M 69.802387 22.813415C 69.738597 21.788788 68.790485 19.855407 67.674999 19.388611C 68.874446 19.542083 70.66222 18.341797 71.22977 17.486328M 64.32423 21.942718C 64.252056 20.704437 63.126873 18.371307 61.795703 17.811493C 63.228458 17.992187 65.369426 16.534332 66.051067 15.498047M 31.120159 16.933777C 30.012287 12.799133 26.110057 10 21.807727 11.152832C 15.350711 12.882965 10.513374 21.63385 10 22.592895C 10.924095 23.166687 19.488811 28.326568 25.945835 26.596435C 30.248165 25.443634 32.228038 21.06842 31.120159 16.933777ZM 31.119693 16.93338L 14.259075 21.451172M 19.834903 22.813415C 19.898693 21.788788 20.846805 19.855407 21.962291 19.388611C 20.762844 19.542083 18.97507 18.341797 18.40752 17.486328M 25.31306 21.942718C 25.385234 20.704437 26.510417 18.371307 27.841587 17.811493C 26.408832 17.992187 24.267864 16.534332 23.586223 15.498047M 44.819115 22.449425C 43.418515 19.265925 38.784015 14.600625 30.753215 17.099525C 38.990515 15.399725 43.462715 23.483425 43.462715 27.765125L 43.310015 49.344325L 46.199215 49.344325L 46.175615 27.765125C 46.199215 23.026325 50.647815 15.399725 58.885115 17.099525C 50.854315 14.600625 46.219815 19.265925 44.819115 22.449425Z"></path></g></g></g><g id="g-root-1.cu_1_sy_18gy6r81dfr093-stroke" data-item-order="999739143" data-item-id="1.cu_1_sy_18gy6r81dfr093" data-item-class="Part Indexed Indexed_1 Fill Stroke ColorFillBlack ColorStrokeBlack" data-item-index="1" data-renderer-id="0" transform="translate(31.786712646484375, 239.82626342773438)"><g id="1.cu_1_sy_18gy6r81dfr093-stroke" fill="none" stroke-linecap="round" stroke-linejoin="round" stroke-miterlimit="4" stroke="#666666" stroke-width="2"><g><path d="M 10.449201 13.3142C 10.000001 11.631 11.357001 10 13.206701 10L 91.219001 10C 93.068701 10 94.425701 11.631 93.976601 13.3142L 92.197601 19.9809C 91.880901 21.1676 90.744101 22 89.440101 22L 14.985701 22C 13.681601 22 12.544801 21.1676 12.228201 19.9809L 10.449201 13.3142ZM 16.199615 22L 87.833615 22L 78.057215 79.7212C 77.791415 81.0462 76.624815 82 75.269815 82L 28.763415 82C 27.408415 82 26.241715 81.0462 25.976015 79.7212L 16.199615 22Z"></path></g></g></g><g id="g-root-book_4jtoz81dfms5r-stroke" data-item-order="1000000000" data-item-id="book_4jtoz81dfms5r" data-item-class="Icon Stroke Indexed Indexed_1 InsideFill InsideColorFill InsideBlackFill" data-item-index="1" data-renderer-id="0" transform="translate(56, 263.8262634277344)"><g id="book_4jtoz81dfms5r-stroke" fill="none" stroke-linecap="round" stroke-linejoin="round" stroke-miterlimit="4" stroke="#4F92FF" stroke-width="2"><g><path d="M 31.502501 13.6675L 31.502501 31.577499C 31.502501 31.577499 34.069 28.771 42.725498 28.66C 43.018074 28.656713 43.253521 28.418594 43.253502 28.126001L 43.253502 11.284C 43.253109 11.141191 43.19569 11.004455 43.094009 10.90418C 42.992325 10.803905 42.854801 10.7484 42.712002 10.75C 41.104511 10.766653 39.500332 10.8995 37.911999 11.1475C 35.608482 11.475422 33.413834 12.338486 31.504002 13.6675M 31.502501 13.6675L 31.502501 31.577499C 31.502501 31.577499 28.9345 28.771 20.278 28.66C 19.985426 28.656713 19.749983 28.418594 19.75 28.126001L 19.75 11.284C 19.750391 11.141191 19.80781 11.004455 19.909492 10.90418C 20.011175 10.803905 20.148699 10.7484 20.2915 10.75C 21.898991 10.766585 23.503178 10.899432 25.091499 11.1475C 27.395529 11.475249 29.590702 12.338319 31.501001 13.6675M 12.7465 43.75L 21.5485 45.170502C 23.380476 45.42527 25.244621 45.04916 26.834499 44.104L 36.049 38.625999C 36.669754 38.258507 37.118843 37.659199 37.297241 36.960228C 37.475643 36.261261 37.368702 35.520035 37 34.900002L 37 34.900002C 36.233803 33.610836 34.567505 33.187042 33.2785 33.953499L 26.078499 38.233002M 12.7465 36.685001L 16.484501 34.463501C 17.867617 33.639969 19.463978 33.245316 21.071501 33.329502L 24.793001 33.522999C 25.486073 33.526203 26.14765 33.812866 26.623943 34.31636C 27.100235 34.819855 27.349754 35.496319 27.314501 36.188499L 27.314501 36.188499C 27.249752 37.466263 26.243019 38.49551 24.967001 38.588501L 20.215 38.563"></path></g></g></g><g id="g-root-neur_1qbz4xg1dflc05-stroke" data-item-order="1000000000" data-item-id="neur_1qbz4xg1dflc05" data-item-class="Icon Stroke Indexed InsideFill InsideColorFill InsideBlackFill" data-item-index="2" data-renderer-id="0" transform="translate(236, 263.8262634277344)"><g id="neur_1qbz4xg1dflc05-stroke" fill="none" stroke-linecap="round" stroke-linejoin="round" stroke-miterlimit="4" stroke="#1AC6FF" stroke-width="2"><g><path d="M 10 10M 35.216499 35.364998L 30.206499 38.062M 37.75 24.122499L 37.75 31.879002M 30.206499 17.939501L 35.212002 20.633501M 25.75 17.5C 25.75 18.742641 26.75736 19.75 28 19.75C 29.242641 19.75 30.25 18.742641 30.25 17.5C 30.25 16.25736 29.242641 15.25 28 15.25C 26.75736 15.25 25.75 16.25736 25.75 17.5M 34.75 34C 34.75 35.242641 35.757362 36.25 37 36.25C 38.242641 36.25 39.25 35.242641 39.25 34C 39.25 32.757362 38.242641 31.75 37 31.75C 35.757362 31.75 34.75 32.757362 34.75 34M 34.75 22C 34.75 23.242641 35.757362 24.25 37 24.25C 38.242641 24.25 39.25 23.242641 39.25 22C 39.25 20.75736 38.242641 19.75 37 19.75C 35.757362 19.75 34.75 20.75736 34.75 22M 10 10M 20.783501 35.364998L 25.793501 38.062M 18.25 24.122499L 18.25 31.8745M 16.75 34C 16.75 35.242641 17.75736 36.25 19 36.25C 20.242641 36.25 21.25 35.242641 21.25 34C 21.25 32.757362 20.242641 31.75 19 31.75C 17.75736 31.75 16.75 32.757362 16.75 34M 16.75 22C 16.75 23.242641 17.75736 24.25 19 24.25C 20.242641 24.25 21.25 23.242641 21.25 22C 21.25 20.75736 20.242641 19.75 19 19.75C 17.75736 19.75 16.75 20.75736 16.75 22M 25.75 38.5C 25.75 39.742641 26.75736 40.75 28 40.75C 29.242641 40.75 30.25 39.742641 30.25 38.5C 30.25 37.257362 29.242641 36.25 28 36.25C 26.75736 36.25 25.75 37.257362 25.75 38.5M 26.212 18.866499L 21.206501 21.562M 28.75 10.75L 28.75 15.379M 27.25 40.618L 27.25 45.25M 11.7865 18.866499L 16.793499 21.562M 10.75 19.622499C 11.649388 19.30452 12.2505 18.453945 12.25 17.5C 12.2505 16.546055 11.649388 15.695481 10.75 15.377501M 44.212002 18.866499L 39.206501 21.562M 45.25 19.622499C 44.349293 19.305649 43.746655 18.454815 43.746655 17.5C 43.746655 16.545187 44.349293 15.694352 45.25 15.377501M 11.7865 37.423L 16.861 34.689999M 10.75 36.667C 11.648869 36.984798 12.249865 37.834606 12.25 38.788002C 12.251137 39.742496 11.649907 40.593838 10.75 40.911999M 44.213501 37.423L 39.139 34.689999M 45.25 36.667C 44.349293 36.983852 43.746655 37.834686 43.746655 38.789501C 43.746655 39.744312 44.349293 40.59515 45.25 40.911999M 16.75 22C 16.75 23.242641 17.75736 24.25 19 24.25C 20.242641 24.25 21.25 23.242641 21.25 22C 21.25 20.75736 20.242641 19.75 19 19.75C 17.75736 19.75 16.75 20.75736 16.75 22"></path></g></g></g><g id="g-root-netw_qqx7lg1dflceb-stroke" data-item-order="1000000000" data-item-id="netw_qqx7lg1dflceb" data-item-class="Icon Stroke Indexed InsideFill InsideColorFill InsideBlackFill" data-item-index="3" data-renderer-id="0" transform="translate(416, 263.8262634277344)"><g id="netw_qqx7lg1dflceb-stroke" fill="none" stroke-linecap="round" stroke-linejoin="round" stroke-miterlimit="4" stroke="#44E095" stroke-width="2"><g><path d="M 39.16 22.9135C 40.687206 25.003452 41.507034 27.526525 41.500004 30.115002C 41.635231 34.206467 39.485573 38.034107 35.921501 40.048L 35.921501 45.25M 22.900002 45.25L 22.900002 42.849998C 20.455 42.863503 19.138 42.676003 18.232 41.768501C 17.0695 40.605999 17.32 35.390499 17.32 35.390499C 17.32 35.390499 16.216 35.432499 15.382 35.390499C 15.084322 35.381172 14.807589 35.235058 14.632 34.994499C 14.515255 34.742031 14.469616 34.462494 14.5 34.186001C 14.35 32.108501 17.1355 29.007999 17.1355 27.973C 17.129534 26.771669 17.355148 25.580448 17.799999 24.4645M 28 10.75L 28 25M 25.75 27.25C 25.75 28.492641 26.75736 29.5 28 29.5C 29.242641 29.5 30.25 28.492641 30.25 27.25C 30.25 26.00736 29.242641 25 28 25C 26.75736 25 25.75 26.00736 25.75 27.25ZM 31.75 21.25C 31.75 22.492641 32.757362 23.5 34 23.5C 35.242641 23.5 36.25 22.492641 36.25 21.25C 36.25 20.00736 35.242641 19 34 19C 32.757362 19 31.75 20.00736 31.75 21.25ZM 19.75 21.25C 19.75 22.492641 20.75736 23.5 22 23.5C 23.242641 23.5 24.25 22.492641 24.25 21.25C 24.25 20.00736 23.242641 19 22 19C 20.75736 19 19.75 20.00736 19.75 21.25ZM 28 15.25L 31 15.25C 32.656853 15.25 34 16.593145 34 18.25L 34 19M 28 15.25L 25 15.25C 23.343145 15.25 22 16.593145 22 18.25L 22 19"></path></g></g></g><g id="g-root-chip_hva7ck1dfld70-stroke" data-item-order="1000000000" data-item-id="chip_hva7ck1dfld70" data-item-class="Icon Stroke Indexed InsideFill InsideColorFill InsideBlackFill" data-item-index="4" data-renderer-id="0" transform="translate(596, 263.8262634277344)"><g id="chip_hva7ck1dfld70-stroke" fill="none" stroke-linecap="round" stroke-linejoin="round" stroke-miterlimit="4" stroke="#A8DD38" stroke-width="2"><g><path d="M 23.7085 16.579C 25.161127 16.089195 26.010798 14.583023 25.678745 13.086435C 25.346693 11.589848 23.939753 10.584355 22.416283 10.754868C 20.892813 10.925379 19.742975 12.217034 19.75 13.75C 19.754065 14.020776 19.794939 14.289742 19.8715 14.5495C 19.705 14.5345 19.5445 14.5 19.375 14.5C 17.232437 14.48954 15.271848 15.702943 14.325418 17.62517C 13.378987 19.547396 13.612757 21.841215 14.9275 23.533001C 12.579105 23.694111 10.756458 25.646086 10.756458 28C 10.756458 30.353914 12.579105 32.305889 14.9275 32.466999C 13.612757 34.158783 13.378987 36.452602 14.325418 38.374832C 15.271848 40.297058 17.232437 41.51046 19.375 41.5C 19.5445 41.5 19.705 41.4655 19.8715 41.4505C 19.425758 43.027332 20.327715 44.670101 21.897406 45.140369C 23.467094 45.610634 25.123728 44.734394 25.618404 43.172226C 26.113081 41.610054 25.26277 39.939968 23.7085 39.421001M 32.2915 16.579C 30.838873 16.089195 29.989202 14.583023 30.321255 13.086435C 30.653307 11.589848 32.060249 10.584355 33.583717 10.754868C 35.107185 10.925379 36.257027 12.217034 36.25 13.75C 36.245934 14.020776 36.205059 14.289742 36.128502 14.5495C 36.295002 14.5345 36.455498 14.5 36.625 14.5C 38.767563 14.48954 40.728153 15.702943 41.674583 17.62517C 42.62101 19.547396 42.387245 21.841215 41.072502 23.533001C 43.420895 23.694111 45.243542 25.646086 45.243542 28C 45.243542 30.353914 43.420895 32.305889 41.072502 32.466999C 42.387245 34.158783 42.62101 36.452602 41.674583 38.374832C 40.728153 40.297058 38.767563 41.51046 36.625 41.5C 36.455498 41.5 36.295002 41.4655 36.128502 41.4505C 36.574242 43.027332 35.672287 44.670101 34.102596 45.140369C 32.532906 45.610634 30.876272 44.734394 30.381596 43.172226C 29.886919 41.610054 30.73723 39.939968 32.2915 39.421001M 25.75 13.6C 27.142305 12.796152 28.857697 12.796152 30.25 13.6M 30.25 42.400002C 28.857697 43.20385 27.142305 43.20385 25.75 42.400002M 23.5 22L 32.5 22C 32.5 22 34 22 34 23.5L 34 32.5C 34 32.5 34 34 32.5 34L 23.5 34C 23.5 34 22 34 22 32.5L 22 23.5C 22 23.5 22 22 23.5 22M 25 19L 25 22M 31 19L 31 22M 19 31L 22 31M 19 25L 22 25M 31 37L 31 34M 25 37L 25 34M 37 25L 34 25M 37 31L 34 31"></path></g></g></g><g id="g-root-top_i0a01g1dflclq-stroke" data-item-order="1000000000" data-item-id="top_i0a01g1dflclq" data-item-class="Icon Stroke Indexed InsideFill InsideColorFill InsideBlackFill" data-item-index="5" data-renderer-id="0" transform="translate(776, 263.8262634277344)"><g id="top_i0a01g1dflclq-stroke" fill="none" stroke-linecap="round" stroke-linejoin="round" stroke-miterlimit="4" stroke="#FFE60A" stroke-width="2"><g><path d="M 16.375 45.25L 29.125 25C 29.482315 24.53286 30.036871 24.258858 30.625 24.258858C 31.213127 24.258858 31.767683 24.53286 32.125 25L 44.875 45.25ZM 16.375 45.25L 11.125 45.25L 16.375 37C 16.74197 36.543549 17.289658 36.269707 17.875 36.25C 18.460342 36.269707 19.00803 36.543549 19.375 37L 20.35 38.949997M 23.057499 34.636002L 26.572001 37.609001C 27.167807 38.112587 28.050161 38.075413 28.6015 37.523502L 29.564501 36.560501C 30.150249 35.974926 31.099751 35.974926 31.685499 36.560501L 32.648499 37.523502C 33.199841 38.075413 34.082195 38.112587 34.678001 37.609001L 38.128002 34.6945M 30.625 24.25L 30.625 10.75M 30.625 10.75L 41.064999 10.75C 41.352989 10.75041 41.615311 10.915689 41.739998 11.175288C 41.864681 11.434889 41.829708 11.742957 41.650002 11.968L 40 14.032C 39.781425 14.305718 39.781425 14.694282 40 14.968L 41.650002 17.032C 41.829708 17.257042 41.864681 17.565111 41.739998 17.824711C 41.615311 18.084312 41.352989 18.24959 41.064999 18.25L 30.625 18.25"></path></g></g></g><g id="g-root-tx_entendie_1cwrovo1dfqzgs-stroke" data-item-order="1000000000" data-item-id="tx_entendie_1cwrovo1dfqzgs" data-item-class="Label Stroke Indexed Indexed_1 ColorStrokeGray" data-item-index="1" data-renderer-id="0" transform="translate(2, 335.8262634277344)"></g><g id="g-root-tx_exploran_1lsep4k1dfqyo3-stroke" data-item-order="1000000000" data-item-id="tx_exploran_1lsep4k1dfqyo3" data-item-class="Label Stroke Indexed ColorStrokeGray" data-item-index="2" data-renderer-id="0" transform="translate(182, 335.8262634277344)"></g><g id="g-root-tx_investig_1lsep4k1dfqyo2-stroke" data-item-order="1000000000" data-item-id="tx_investig_1lsep4k1dfqyo2" data-item-class="Label Stroke Indexed ColorStrokeGray" data-item-index="3" data-renderer-id="0" transform="translate(362, 335.8262634277344)"></g><g id="g-root-tx_analizan_1q887901dfqxvt-stroke" data-item-order="1000000000" data-item-id="tx_analizan_1q887901dfqxvt" data-item-class="Label Stroke Indexed ColorStrokeGray" data-item-index="4" data-renderer-id="0" transform="translate(524, 335.8262634277344)"></g><g id="g-root-tx_logrando_24ofo1dfr0g0-stroke" data-item-order="1000000000" data-item-id="tx_logrando_24ofo1dfr0g0" data-item-class="Label Stroke Indexed ColorStrokeGray" data-item-index="5" data-renderer-id="0" transform="translate(728, 335.8262634277344)"></g></g></g></svg>