<svg xmlns="http://www.w3.org/2000/svg" xmlns:xlink="http://www.w3.org/1999/xlink" viewBox="0 0 479.24 571.97"><defs><style>.cls-1{fill:url(#Degradado_sin_nombre_19);}.cls-2{fill:url(#Degradado_sin_nombre_29);}.cls-3{fill:#ffa853;}</style><linearGradient id="Degradado_sin_nombre_19" x1="156.18" y1="10.18" x2="156.18" y2="571.97" gradientUnits="userSpaceOnUse"><stop offset="0" stop-color="#fff"/><stop offset="0.35" stop-color="#fed3b1"/><stop offset="0.65" stop-color="#feb176"/><stop offset="0.87" stop-color="#fd9c51"/><stop offset="0.98" stop-color="#fd9443"/></linearGradient><linearGradient id="Degradado_sin_nombre_29" x1="233.92" y1="571.97" x2="233.92" y2="10.42" gradientUnits="userSpaceOnUse"><stop offset="0" stop-color="#fff"/><stop offset="0.22" stop-color="#ffe4cc"/><stop offset="0.48" stop-color="#ffc895"/><stop offset="0.7" stop-color="#ffb36d"/><stop offset="0.88" stop-color="#ffa755"/><stop offset="0.98" stop-color="#ffa24c"/></linearGradient></defs><g id="Capa_2" data-name="Capa 2"><g id="Logo_1" data-name="Logo 1"><g id="Trazado"><path class="cls-1" d="M239.78,572c1.76-21.44-2.7-47.85-26-54.88-11.17-3.37-23.07-1.61-34.48-1.33-20.43.51-41.55,2.1-62.2,3.72-14.17,1.12-36.45,4.1-49.44-3.19C59,511.42,54.54,504.44,52,496.39s3.81-28.15,3.6-37.89-7.41-11-11.64-14.19a23.07,23.07,0,0,1-5.17-5.22c-2.74-3.94-.48-8.87,1.45-12.66l2.66-5.19s4.87,2.11-8.26-4-1.38-22.68-1.38-22.68,1.14-2,1.2-2.12a17.41,17.41,0,0,0-9.29-21.9C9.78,363.6-3.95,356.62,1,348.16c14.32-24.22,22.29-41.87,27.37-51.76,9.52-18.56,19.5-33.42,18.94-46.15-.25-5.64-2.53-11.4-4.37-16.67-1.08-3.09-2.23-6.16-3.41-9.22a72.91,72.91,0,0,1-3.34-12.07c-.81-3.86-1.67-10.25.12-24.76a200.85,200.85,0,0,1,5.32-27.43c4.25-15.75,8.15-30.24,17.35-48.2A198.83,198.83,0,0,1,85.16,73.05a206.64,206.64,0,0,1,31.75-29.83,210.41,210.41,0,0,1,34.17-21.15q8.32-4.11,17-7.43c2.74-1.05,12.73-4.1,15.64-4.46,0,0-78.42,52.52-52.15,140.8,0,0,25.35,72.7,102,125.55,0,0,73.32,51.32,78.51,130.44S239.78,572,239.78,572Z"/><path class="cls-2" d="M183.32,10.42s-8.4,17-15.93,35.54c-9.14,22.46-12.27,47.22-12.19,58.38.12,15.38.92,48,34.87,88.78C205,211,221,227.54,239.43,241.9c32.94,25.69,62.68,50.63,83.62,87.56,7.05,12.43,12.84,25.71,15.94,39.7,3.2,14.47,3.34,29.82,1.42,44.47-3.31,25.33-13.79,49.71-26.86,71.46-1.77,2.94-5,8.21-10.62,16.24-12.17,17.28-32,42.28-63.15,70.64a349.82,349.82,0,0,0,37.44-51.71c5.71-9.63,12-20.17,17.66-33.86,6.66-16,26.24-63.18,10.68-113.24-6.41-20.62-17.48-37.56-21.52-43.65a190.8,190.8,0,0,0-21.3-26.69c-12.18-12.66-17.44-14.5-48.48-40.87-8.77-7.45-11.91-10.33-14.07-12.35a294.08,294.08,0,0,1-26.57-28.44,286.67,286.67,0,0,1-26.57-38.34c-8-14-12.69-22.14-16.32-34.79a117.84,117.84,0,0,1-4.32-39.87,125.73,125.73,0,0,1,8.77-37.4C147.9,39.08,170.81,19.56,183.32,10.42Z"/><path class="cls-3" d="M207.58,3.39S182.3,48.76,175,80c0,0,13.32,63.72,90.49,113a16.6,16.6,0,0,1,18.58-.82c7.21,4.66,9.3,14.83,5.16,21.41-5.38,8.56-19.55,8.26-25.9,1.42-4-4.33-3.93-10.22-3.82-12.1,0,0-53.35-28.71-85.54-94.34,0,0-10.13,50.1,82.94,125.77a222.48,222.48,0,0,0,22.31-3.54,224.7,224.7,0,0,0,30.51-8.73A15.27,15.27,0,0,1,316,208c6.12-4.1,14.27-2.27,19,2.33,3.44,3.37,4.8,8.51,4.38,14-.57,7.43-11.14,17.7-25.41,8.28,0,0-38.55,12-43.4,12,0,0,37.11,30.27,43.4,42.26,0,0,35.4-38.83,44-81.94,0,0-7.42-6-6.56-15.71a16.17,16.17,0,0,1,5.55-9.5,15.6,15.6,0,0,1,11-3.63c7.93.66,11.84,7.61,12.06,8,2.88,5.36,2.58,12.6-1.75,17.36a15.09,15.09,0,0,1-9.46,4.6s-15.13,57.39-47.39,88.79c0,0,32.55,44.26,34.83,82.52,0,0,80.09-74.33,17.14-212.35-.78,0-9,.17-13.48-6.05-4.77-6.66-3.05-17.54,4.63-22,6-3.42,14-2.12,19.11,3.41,0,0,8.61,9.9,0,19.1,0,0,70.54,131.59-25.51,230.88,0,0,7.32,52.17-26.34,113.65,0,0,177.47-185.74,143-316.49,0,0-41.93-54.92-121.93-68.25-.42.6-5.58,7.74-14.3,7.48A15.78,15.78,0,0,1,327.64,122a16.06,16.06,0,0,1-1.07-20c4.09-5.41,10.63-6,11.76-6,.64-.06,8.14-.65,12.62,5a13.54,13.54,0,0,1,2.8,7.77s77.65,12.94,115,57.81c0,0-10.57-59.43-70.32-110.44,0,0-62.48,14.11-96,50.77a16.63,16.63,0,0,1-3.28,17.43c-5,5.18-11.83,4.82-12.86,4.75-.64-.08-8.34-1.15-12-8.26a15.59,15.59,0,0,1,1.24-16,15.16,15.16,0,0,1,19.4-4.31s16.52-25.76,93.56-52.92c0,0-25.68-29.16-92.09-43.66A189,189,0,0,0,276.72,38c-13.23,32.71-17.65,81.35-15.06,103.89A15,15,0,0,1,274,152.12c2.21,7.07-2.05,12.88-2.48,13.45a17.1,17.1,0,0,1-13.08,6.35c-8.22-.06-12.82-6.29-13.27-6.92-.45-.83-3.84-7.38-.72-14.39a16.27,16.27,0,0,1,7.34-7.69S244.67,58.43,283.12,3.16C283.12,3.16,275.31-4.1,207.58,3.39Z"/></g></g></g></svg>